<svg width="96" height="56" viewBox="0 0 96 56" fill="none" xmlns="http://www.w3.org/2000/svg">
<path d="M50.3751 40.837C50.3591 40.8515 50.3381 40.8593 50.3171 40.8593C49.8316 40.8624 49.3226 40.8572 48.9801 40.8567C44.9621 40.8525 40.9431 40.9018 36.9266 40.825C33.9691 40.7685 31.0111 40.7955 28.0551 40.7084C26.8321 40.6721 25.6101 40.6876 24.3881 40.6524C24.0136 40.6415 23.7191 40.7607 23.4526 41.0267C22.8756 41.6028 22.2656 42.1177 21.5056 42.4444C19.2811 43.4005 16.4686 42.8379 14.8601 40.8852C13.3766 39.0839 13.0261 37.0471 13.7086 34.8024C13.7696 34.6013 13.7991 34.4836 13.8546 34.1911C13.8556 34.1854 13.8571 34.1797 13.8591 34.1745C13.8856 34.0978 13.9096 34.0262 13.9311 33.9562C13.9876 33.7732 13.7691 33.6342 13.6376 33.7701C13.6036 33.8048 13.5666 33.8437 13.5236 33.8888C12.6316 34.8351 12.1031 35.9619 11.9951 37.282C11.9391 37.967 11.9486 38.6545 12.0476 39.339C12.1136 39.7963 12.0256 39.8611 11.5866 39.7636C10.2426 39.4644 8.89655 39.173 7.55305 38.8713C6.87755 38.7199 6.83005 38.6789 6.98355 37.9633C7.38005 36.1159 7.33855 34.2736 7.00055 32.4276C6.86705 31.7002 7.05755 31.1904 7.71105 30.7564C10.0411 29.2087 12.5401 28.0861 15.1896 27.2793C17.7616 26.4958 20.3846 26.0037 23.0316 25.6044C24.9081 25.3213 26.7876 25.1119 28.6816 25.0393C29.4486 25.0102 30.1331 24.7499 30.8121 24.3745C33.1486 23.0829 35.5281 21.8836 38.0131 20.9186C39.8141 20.2191 41.6481 19.6228 43.4991 19.1001C45.2471 18.6065 47.0416 18.297 48.8351 18.0107C51.6796 17.5565 54.542 17.5773 57.4051 17.6706C58.2155 17.697 59.0231 17.822 59.8331 17.8894C60.0456 17.907 60.2601 17.892 60.4741 17.8868C60.5215 17.8858 60.5621 17.9242 60.5656 17.9734C60.5896 18.3255 60.444 18.6506 60.3785 18.985C60.148 20.1605 59.9405 21.3474 59.604 22.4918C59.1926 23.8913 58.7361 25.2799 58.2146 26.6441C57.7371 27.8916 57.2846 29.1553 56.6776 30.3375C55.6121 32.4131 54.6211 34.5313 53.3261 36.4788C52.5146 37.6994 51.6966 38.9127 50.8236 40.0846C50.5396 40.4657 50.6956 40.5497 50.3741 40.8385L50.3751 40.837ZM37.0331 24.7281C36.9841 24.6597 36.8796 24.6903 36.8716 24.7748C36.8376 25.1243 36.8291 25.4515 36.7341 25.7496C36.5576 26.3039 36.4596 26.9593 35.7116 27.0573C35.5571 27.0776 35.3381 27.1247 35.3466 27.3275C35.3551 27.5271 35.5796 27.5333 35.7331 27.5873C36.2291 27.761 36.6286 28.013 36.6596 28.6414C36.6731 28.9178 36.7441 29.1962 36.8231 29.4627C36.8831 29.665 36.8206 30.0295 37.1026 30.0046C37.2771 29.989 37.2381 29.637 37.2426 29.4275C37.2736 28.0192 37.4331 27.7921 38.7126 27.3415C38.7131 27.3415 38.7141 27.3415 38.7146 27.341C38.8116 27.3093 38.8011 27.1662 38.6996 27.1584C38.6791 27.1569 38.6586 27.1548 38.6386 27.1517C37.5996 26.9775 37.2716 26.6181 37.1756 25.5531C37.1646 25.4287 37.1811 25.2923 37.1356 25.1834C37.0796 25.0481 37.1341 24.8702 37.0331 24.7287V24.7281ZM20.7576 31.4269C20.8316 31.3932 20.8256 31.2812 20.7491 31.2542C20.5966 31.2003 20.4501 31.1593 20.2896 31.1505C19.7486 31.1215 19.4756 30.843 19.4116 30.2825C19.3921 30.113 19.3966 29.9403 19.3891 29.7692C19.3856 29.6956 19.4026 29.6053 19.2931 29.5981C19.2056 29.5924 19.1546 29.6437 19.1321 29.7277C19.1081 29.8174 19.0646 29.9082 19.0656 29.9979C19.0731 30.6735 18.6876 30.9618 18.1076 31.0857C17.9586 31.1173 17.7176 31.1194 17.7151 31.3222C17.7131 31.5233 17.9446 31.5244 18.0986 31.5643C18.6171 31.6996 18.9796 32.2109 19.0021 32.8072C19.0081 32.9622 18.9906 33.2163 19.1831 33.2287C19.4256 33.2438 19.4041 32.9975 19.4166 32.8098C19.4631 32.1155 19.8156 31.6898 20.4496 31.499C20.5436 31.4704 20.6511 31.4756 20.7576 31.4269Z" fill="#568EFE"/>
<path d="M67.2465 19.5347C69.1755 20.1543 71.0595 20.8973 72.8735 21.8182C74.187 22.485 75.4825 23.1892 76.7905 23.8669C77.9985 24.4927 79.313 24.6908 80.632 24.8552C82.316 25.0652 84.0055 25.0247 85.696 24.9651C86.2505 24.9454 86.302 24.9967 86.286 25.5733C86.224 27.832 86.648 29.9984 87.563 32.0351C88.006 33.0203 87.7685 33.8857 87.464 34.7895C87.1205 35.8104 86.408 36.4622 85.487 36.9268C82.8085 38.2786 80.001 39.2741 77.1615 40.179C76.705 40.3247 76.3565 40.5912 76.0445 40.9365C74.7975 42.3163 73.2765 42.9831 71.4405 42.9318C68.581 42.8514 66.118 40.4979 65.8565 37.5651C65.7675 36.5685 65.816 35.5979 66.224 34.6728C66.2605 34.5899 66.287 34.5064 66.3045 34.4219C66.3745 34.09 65.959 33.8836 65.757 34.1512C65.7555 34.1533 65.754 34.1553 65.7525 34.1574C64.404 35.9624 64.086 37.9576 64.7125 40.1287C64.8345 40.5507 64.7745 40.6441 64.329 40.6659C61.9915 40.7789 59.6535 40.8779 57.313 40.8707C56.9365 40.8696 56.5595 40.8795 56.183 40.8847C56.5455 40.3065 57.0835 39.8927 57.4975 39.3576C58.52 38.0349 59.6005 36.7614 60.5455 35.3744C61.4655 34.0241 62.1925 32.5505 63.0675 31.1713C63.7445 30.1041 64.248 28.9364 64.7765 27.7879C65.593 26.0156 66.2245 24.164 66.811 22.2979C67.092 21.4034 67.363 20.5001 67.2475 19.5347H67.2465Z" fill="#2D36B5"/>
<path d="M50.8744 40.083C51.7474 38.9112 52.5655 37.6973 53.3769 36.4773C54.6719 34.5292 55.6629 32.4116 56.7284 30.3359C57.3354 29.1537 57.788 27.8906 58.2655 26.6425C58.7875 25.2788 59.2434 23.8902 59.6549 22.4902C59.9914 21.3459 60.1989 20.159 60.4294 18.9835C60.5004 18.6216 60.6649 18.27 60.6069 17.8842C60.8954 17.5845 60.8369 17.1796 60.8679 16.8213C61.0174 15.0894 61.1074 13.3441 60.9549 11.6169C60.7354 9.12644 60.1369 6.74696 58.3504 4.88963C58.0749 4.60341 57.7574 4.36074 57.4609 4.09526C57.3779 4.02111 57.2039 3.98741 57.2885 3.82096C57.3469 3.70585 57.4845 3.74993 57.5775 3.7717C58.864 4.06726 60.1114 4.4577 61.1479 5.36096C62.8354 6.832 63.6364 8.79615 64.0759 10.9672C64.5524 13.3197 64.5469 15.6836 64.2579 18.0559C64.2295 18.2887 64.2784 18.4883 64.4384 18.6563C64.3199 18.7963 64.2024 18.9358 64.1634 19.1276C63.9329 20.2658 63.7214 21.4086 63.4629 22.5395C63.1034 24.1147 62.6769 25.6651 62.0874 27.1756C61.2809 29.2424 60.4944 31.3201 59.5929 33.3418C58.5754 35.6238 57.1664 37.6818 55.8749 39.8041C55.6744 40.1339 55.3904 40.4517 55.5319 40.9028C55.1049 40.8577 54.8434 41.0926 54.5974 41.427C52.4009 44.4096 49.8689 47.0265 46.7324 48.9461C44.9499 50.0365 43.0594 50.8153 40.9294 50.8143C39.0149 50.8133 37.4089 50.093 36.0404 48.7433C36.0394 48.7423 36.0384 48.7418 36.0379 48.7407C35.8864 48.594 36.0224 48.3379 36.2209 48.3975C36.2284 48.3996 36.2354 48.4021 36.2429 48.4042C37.4734 48.7895 38.7174 48.7698 39.9584 48.5048C41.6239 48.1491 43.0929 47.3216 44.5069 46.3799C46.4519 45.0852 48.0859 43.4223 49.6604 41.6894" fill="#3038B6"/>
<path d="M55.1 40.963C55.4 40.4963 55.6745 40.1349 55.875 39.8051C57.167 37.6828 58.5755 35.6243 59.593 33.3428C60.4945 31.3216 61.281 29.2439 62.0875 27.1766C62.677 25.6656 63.1035 24.1158 63.463 22.5405C63.721 21.4091 63.933 20.2668 64.1635 19.1287C64.2025 18.9363 64.32 18.7973 64.4385 18.6573C65.4105 18.8259 66.362 19.0649 67.2465 19.5347C67.362 20.4996 67.091 21.4034 66.81 22.2979C66.224 24.164 65.592 26.0156 64.7755 27.7879C64.2465 28.9359 63.7435 30.1036 63.0665 31.1713C62.1915 32.5505 61.4645 34.0241 60.5445 35.3744C59.5995 36.7614 58.519 38.0349 57.4965 39.3576C57.083 39.8927 56.5445 40.3065 56.182 40.8847C55.9495 40.9116 55.2995 40.9116 55.0995 40.9635L55.1 40.963Z" fill="#212879"/>
<path d="M46.1115 15.4788C45.746 16.0699 45.3165 16.477 44.565 16.5682C43.654 16.6792 42.765 16.983 41.8665 17.2034C41.8575 16.9587 42.0505 17.0266 42.1775 16.9696C42.483 16.8316 42.9005 16.8985 43.093 16.4754C42.841 16.3873 42.61 16.3826 42.4005 16.4521C41.8405 16.6372 41.2665 16.7326 40.6855 16.7969C41.858 14.8903 43.198 13.1206 44.6715 11.453C46.204 9.71911 47.912 8.21126 49.837 6.96837C50.001 6.86259 50.1895 6.79778 50.367 6.71378C50.549 7.11563 50.777 7.16074 51.01 6.81126C51.113 6.65674 51.1515 6.74022 51.2465 6.78845C51.4285 6.88178 51.668 6.90563 51.8105 6.80245C52.0625 6.62045 52.32 6.66089 52.5835 6.65259C52.9315 6.64119 53.305 6.74541 53.549 6.34978C53.617 6.23985 53.7775 6.25178 53.888 6.28133C54.4125 6.42185 54.5275 6.09778 54.56 5.66896C55.613 5.75504 56.4225 6.30985 57.097 7.10682C57.1935 7.22089 57.351 7.34482 57.283 7.54289C57.2025 7.77778 56.9995 7.68289 56.8535 7.67822C54.9295 7.61963 53.359 8.53119 51.8495 9.61696C49.627 11.2156 47.821 13.2544 46.133 15.4176" fill="#568DFD"/>
<path d="M36.7999 43.0796C37.1324 43.0573 37.3264 43.2284 37.3929 43.5301C37.5734 44.3504 37.9549 45.0655 38.4019 45.7541C38.6214 46.0927 38.3659 46.1129 38.1419 46.1253C36.9179 46.1912 35.9664 45.6478 35.1949 44.7025C34.9104 44.3536 34.7139 43.9481 34.5074 43.5514C34.3274 43.2056 34.4134 43.0801 34.8094 43.0728C35.1564 43.0666 35.5029 43.0713 35.8499 43.0713" fill="#548BFD"/>
<path d="M20.417 12.5264C20.5015 13.1984 20.323 13.9404 20.9635 14.4221C21.177 14.5828 21.3785 14.7233 21.6465 14.7368C21.7405 14.7415 22.05 14.7254 22.05 14.881C22.05 15.0365 21.8 15.0365 21.6645 15.0749C21.255 15.191 21.057 15.4705 20.75 15.7106C20.5745 15.848 20.4905 16.0948 20.5 16.3328C20.5135 16.6756 20.4695 16.9981 20.465 17.3413C20.464 17.4336 20.461 17.5399 20.3345 17.543C20.212 17.5461 20.2035 17.4481 20.1895 17.3522C20.167 17.1987 20.1505 17.0587 20.1115 16.8939C19.9155 16.0653 19.642 15.5136 18.9795 15.12C18.875 15.0578 18.6835 15.0407 18.7005 14.881C18.716 14.7358 18.904 14.7436 19.002 14.7202C19.596 14.5802 19.835 14.1058 20.0015 13.5707C20.1095 13.2222 20.1645 12.8561 20.2805 12.5103C20.305 12.4377 20.408 12.4496 20.418 12.5259L20.417 12.5264Z" fill="#588BF4"/>
<path d="M54.5599 5.66948C54.5274 6.0983 54.4129 6.42185 53.8879 6.28185C53.7779 6.2523 53.6169 6.24037 53.5489 6.3503C53.3049 6.74593 52.9309 6.64222 52.5834 6.65311C52.3204 6.66141 52.0624 6.62096 51.8104 6.80296C51.6679 6.90615 51.4289 6.8823 51.2464 6.78896C51.1514 6.74022 51.1129 6.65674 51.0099 6.81178C50.7769 7.16126 50.5484 7.11615 50.3669 6.7143C51.5169 5.97282 52.7649 5.58911 54.1229 5.60882C54.2694 5.61089 54.4234 5.57719 54.5594 5.66948H54.5599Z" fill="#4F89FC"/>
<path d="M40.686 16.7969C41.267 16.7326 41.841 16.6377 42.401 16.4521C42.6105 16.3826 42.8415 16.3873 43.0935 16.4754C42.901 16.899 42.4835 16.8321 42.178 16.9696C42.051 17.0271 41.8575 16.9592 41.867 17.2034C41.447 17.3994 41.0095 17.5415 40.566 17.668C40.4485 17.7017 40.3625 17.8137 40.2505 17.6804C40.171 17.5861 40.3005 17.429 40.351 17.3444C40.461 17.1604 40.5745 16.9784 40.6865 16.7959L40.686 16.7969Z" fill="#568DFD"/>
<path d="M36.9395 24.611C37.2275 24.7572 37.1125 25.0056 37.1855 25.1824C37.2305 25.2918 37.214 25.4281 37.2255 25.5521C37.3215 26.6171 37.65 26.9764 38.6885 27.1507C38.789 27.1678 38.899 27.1481 38.9835 27.2331C38.9455 27.3659 38.8345 27.3156 38.762 27.341C37.483 27.7916 37.323 28.0187 37.292 29.427C37.2875 29.6364 37.3265 29.9885 37.152 30.0041C36.87 30.0295 36.9325 29.665 36.8725 29.4622C36.7935 29.1957 36.7225 28.9173 36.709 28.6409C36.678 28.0124 36.2785 27.7604 35.7825 27.5867C35.629 27.5328 35.4045 27.5266 35.396 27.327C35.3875 27.1242 35.607 27.077 35.761 27.0568C36.509 26.9588 36.607 26.3034 36.7835 25.7491C36.893 25.4048 36.8875 25.0216 36.939 24.6104L36.9395 24.611Z" fill="#F4F8F9"/>
<path d="M20.7525 31.2376C20.8505 31.2708 20.8515 31.417 20.7525 31.4471C20.6645 31.4741 20.5775 31.4751 20.5 31.4984C19.866 31.6893 19.5135 32.115 19.467 32.8093C19.4545 32.997 19.476 33.2438 19.2335 33.2282C19.041 33.2163 19.058 32.9617 19.0525 32.8067C19.03 32.2104 18.668 31.6991 18.149 31.5638C17.995 31.5239 17.7635 31.5223 17.7655 31.3216C17.7675 31.1184 18.009 31.1168 18.158 31.0852C18.738 30.9613 19.1235 30.673 19.116 29.9973C19.115 29.9076 19.1585 29.8169 19.1825 29.7272C19.205 29.6432 19.213 29.6017 19.3005 29.6074C19.41 29.6147 19.436 29.6945 19.4395 29.7687C19.447 29.9398 19.443 30.1124 19.462 30.282C19.5255 30.843 19.799 31.121 20.34 31.15C20.484 31.1578 20.617 31.1915 20.753 31.2376H20.7525Z" fill="#F3F6F8"/>
</svg>
