<svg width="22" height="21" viewBox="0 0 22 21" fill="none" xmlns="http://www.w3.org/2000/svg">
<path d="M10.5644 0.272788C10.7557 -0.0665348 11.2443 -0.0665351 11.4356 0.272787L14.6965 6.05822C14.7678 6.1848 14.8907 6.27409 15.0332 6.30283L21.5431 7.61634C21.9249 7.69338 22.0759 8.1581 21.8123 8.44486L17.3177 13.334C17.2194 13.4409 17.1724 13.5854 17.1891 13.7298L17.9516 20.327C17.9963 20.7139 17.601 21.0011 17.2468 20.839L11.2081 18.0752C11.076 18.0148 10.924 18.0148 10.7919 18.0752L4.7532 20.839C4.39902 21.0011 4.0037 20.7139 4.04842 20.327L4.81088 13.7298C4.82756 13.5854 4.78062 13.4409 4.68228 13.334L0.187687 8.44486C-0.0759266 8.1581 0.0750707 7.69338 0.456887 7.61634L6.96683 6.30283C7.10927 6.27409 7.23217 6.1848 7.30352 6.05822L10.5644 0.272788Z" fill="#4D79F0"/>
</svg>
