<svg width="21" height="20" viewBox="0 0 21 20" fill="none" xmlns="http://www.w3.org/2000/svg">
<path fill-rule="evenodd" clip-rule="evenodd" d="M14.0685 2.5C14.0685 2.15482 13.7887 1.875 13.4435 1.875C13.0983 1.875 12.8185 2.15482 12.8185 2.5V3.54167H7.40186V2.5C7.40186 2.15482 7.12204 1.875 6.77686 1.875C6.43168 1.875 6.15186 2.15482 6.15186 2.5V3.54167H5.11019C3.84454 3.54167 2.81853 4.56768 2.81853 5.83333V9.16667V15.8333C2.81853 17.099 3.84454 18.125 5.11019 18.125H15.1102C16.3758 18.125 17.4019 17.099 17.4019 15.8333V9.16667V5.83333C17.4019 4.56768 16.3758 3.54167 15.1102 3.54167H14.0685V2.5ZM16.1519 8.54167V5.83333C16.1519 5.25804 15.6855 4.79167 15.1102 4.79167H14.0685V5.83333C14.0685 6.17851 13.7887 6.45833 13.4435 6.45833C13.0983 6.45833 12.8185 6.17851 12.8185 5.83333V4.79167H7.40186V5.83333C7.40186 6.17851 7.12204 6.45833 6.77686 6.45833C6.43168 6.45833 6.15186 6.17851 6.15186 5.83333V4.79167H5.11019C4.5349 4.79167 4.06853 5.25804 4.06853 5.83333V8.54167H16.1519ZM4.06853 9.79167H16.1519V15.8333C16.1519 16.4086 15.6855 16.875 15.1102 16.875H5.11019C4.5349 16.875 4.06853 16.4086 4.06853 15.8333V9.79167Z" fill="#282828"/>
</svg>
